<?xml version="1.0" standalone="no"?><!DOCTYPE svg PUBLIC "-//W3C//DTD SVG 1.1//EN" "http://www.w3.org/Graphics/SVG/1.1/DTD/svg11.dtd"><svg t="1651486762492" class="icon" viewBox="0 0 1024 1024" version="1.1" xmlns="http://www.w3.org/2000/svg" p-id="5314" xmlns:xlink="http://www.w3.org/1999/xlink" width="200" height="200"><defs><style type="text/css">@font-face { font-family: feedback-iconfont; src: url("//at.alicdn.com/t/font_1031158_u69w8yhxdu.woff2?t=1630033759944") format("woff2"), url("//at.alicdn.com/t/font_1031158_u69w8yhxdu.woff?t=1630033759944") format("woff"), url("//at.alicdn.com/t/font_1031158_u69w8yhxdu.ttf?t=1630033759944") format("truetype"); }
</style></defs><path d="M981.333333 512c0-259.206667-210.126667-469.333333-469.333333-469.333333S42.666667 252.793333 42.666667 512s210.126667 469.333333 469.333333 469.333333 469.333333-210.126667 469.333333-469.333333z m-896 0c0-235.64 191.026667-426.666667 426.666667-426.666667s426.666667 191.026667 426.666667 426.666667-191.026667 426.666667-426.666667 426.666667-426.666667-191.026667-426.666667-426.666667z m213.38-32a53.373333 53.373333 0 0 1 53.333334-53.333333h319.866666A53.333333 53.333333 0 0 1 716 510.04L556.066667 744.666667a53.333333 53.333333 0 0 1-88.133334 0L308 510.04A53.286667 53.286667 0 0 1 298.713333 480z m383.933334 0.08a11.093333 11.093333 0 0 0-1.28-5.08 10.446667 10.446667 0 0 0-9.433334-5.666667H352.066667a10.666667 10.666667 0 0 0-8.813334 16.666667l159.933334 234.666667a10.666667 10.666667 0 0 0 17.626666 0l159.933334-234.666667a10.313333 10.313333 0 0 0 1.92-5.906667zM298.666667 362.666667a21.333333 21.333333 0 0 1 21.333333-21.333334h384a21.333333 21.333333 0 0 1 0 42.666667H320a21.333333 21.333333 0 0 1-21.333333-21.333333z" fill="#ffffff" p-id="5315"></path></svg>